<?xml version="1.0" encoding="utf-8"?>
<!-- Generator: Adobe Illustrator 25.2.1, SVG Export Plug-In . SVG Version: 6.00 Build 0)  -->
<svg version="1.1" id="Capa_1" xmlns="http://www.w3.org/2000/svg" xmlns:xlink="http://www.w3.org/1999/xlink" x="0px" y="0px"
	 viewBox="0 0 242 81" style="enable-background:new 0 0 242 81;" xml:space="preserve">
<style type="text/css">
	.st0{fill:#FFFFFF;}
</style>
<g id="_x38_2a5eed0-9604-4b6c-9973-5556922905a8" transform="matrix(4.639811167258099,0,0,4.639811167258099,112.22201476531644,107.05854600982487)">
	<path class="st0" d="M0.7-8.8h0.3v-10.7H0.6l-2.7,6.2h0l-2.7-6.2h-0.5v10.7h0.3V-19h0.1l2.9,6.5L0.7-19h0.1V-8.8z M6.9-8.6
		c2,0,3.2-1.4,3.2-4.1c0-2.7-1.2-4.1-3.2-4.1s-3.2,1.4-3.2,4.1C3.7-10,4.9-8.6,6.9-8.6z M6.9-8.9C5.1-8.9,4-10.2,4-12.4v-0.7
		c0-2.1,1-3.5,2.8-3.5s2.8,1.3,2.8,3.5v0.7C9.7-10.2,8.7-8.9,6.9-8.9z M15.9-8.6c2,0,3.2-1.4,3.2-4.1c0-2.7-1.2-4.1-3.2-4.1
		s-3.2,1.4-3.2,4.1C12.7-10,13.9-8.6,15.9-8.6z M15.9-8.9c-1.8,0-2.8-1.3-2.8-3.5v-0.7c0-2.1,1-3.5,2.8-3.5s2.8,1.3,2.8,3.5v0.7
		C18.7-10.2,17.7-8.9,15.9-8.9z M27.3-8.8h0.3v-11.3h-0.3v4.6h-0.1c-0.3-0.7-1.1-1.4-2.4-1.4c-2,0-3.2,1.4-3.2,4.1
		c0,2.7,1.2,4.1,3.2,4.1c1.3,0,2.1-0.7,2.4-1.4h0.1V-8.8z M24.8-8.9c-1.8,0-2.8-1.3-2.8-3.5v-0.7c0-2.1,1-3.5,2.8-3.5
		c1.3,0,2.5,0.8,2.5,2.1v3.5C27.3-9.7,26.1-8.9,24.8-8.9z"/>
</g>
<g id="f1d7c833-3b35-4c36-aabc-ac4b0d5780fc" transform="matrix(0.7311605181650378,0,0,0.7311605181650378,35.8372954951068,113.35699434460463)">
	<path class="st0" d="M-34.2-81.7c-4.2-16.2-5.1-33,4.5-47.7c6.9-10.5,19.9-15.7,32.9-15.7c14,0,24.9,4.7,32.3,14.8
		c10.6,14.4,9.3,32.4,5.1,48.6c-1.1,4.3,5.9,6.1,7,1.8c4.8-18.3,5.5-38.6-5.8-55c-8.4-12.1-22.8-19.1-38-19.5
		c-15.3-0.3-29.5,7-38.4,18.5C-47-119.9-46-98.1-41.2-79.9C-40.1-75.6-33.1-77.4-34.2-81.7z"/>
	<path class="st0" d="M28.3-52.7l6.8,1.2l5.4-26.3L33.7-79L28.3-52.7z M14.4-50.8c-0.5,2.5,2,5.1,5.6,5.7c3.6,0.7,6.9-0.8,7.5-3.4
		l7.4-36c0.5-2.5-2-5.1-5.6-5.7c-3.6-0.7-6.9,0.8-7.4,3.4L14.4-50.8z M37.8-56.3c-0.2,1,0.3,1.9,1.2,2.1l1.6,0.3
		c0.9,0.2,1.7-0.5,1.9-1.5l4.8-23.1c0.2-1-0.3-1.9-1.2-2.1l-1.6-0.3c-0.9-0.2-1.7,0.5-1.9,1.5L37.8-56.3L37.8-56.3z M-21.9-52.7
		l-6.8,1.2l-5.4-26.3l6.8-1.2L-21.9-52.7z"/>
	<path class="st0" d="M-8-50.8c0.5,2.5-2,5.1-5.6,5.7c-3.6,0.7-6.9-0.8-7.5-3.4l-7.4-36c-0.5-2.5,2-5.1,5.6-5.7
		c3.6-0.7,6.9,0.8,7.5,3.4L-8-50.8z M-31.4-56.3c0.2,1-0.3,1.9-1.2,2.1l-1.6,0.3c-0.9,0.2-1.7-0.5-1.9-1.5l-4.8-23.1
		c-0.2-1,0.3-1.9,1.2-2.1l1.6-0.3c0.9-0.2,1.7,0.5,1.9,1.5L-31.4-56.3z"/>
</g>
</svg>
